<?xml version="1.0" encoding="UTF-8" standalone="no"?>
<!-- Generator: Adobe Illustrator 15.0.0, SVG Export Plug-In . SVG Version: 6.00 Build 0)  -->

<svg
   xmlns:dc="http://purl.org/dc/elements/1.1/"
   xmlns:cc="http://creativecommons.org/ns#"
   xmlns:rdf="http://www.w3.org/1999/02/22-rdf-syntax-ns#"
   xmlns:svg="http://www.w3.org/2000/svg"
   xmlns="http://www.w3.org/2000/svg"
   xmlns:sodipodi="http://sodipodi.sourceforge.net/DTD/sodipodi-0.dtd"
   xmlns:inkscape="http://www.inkscape.org/namespaces/inkscape"
   version="1.1"
   x="0px"
   y="0px"
   width="20"
   height="20"
   viewBox="0 0 20 20"
   enable-background="new 0 0 30 30"
   xml:space="preserve"
   id="svg2"
   inkscape:version="0.48.1 r9760"
   sodipodi:docname="clear.svg"><metadata
   id="metadata23"><rdf:RDF><cc:Work
       rdf:about=""><dc:format>image/svg+xml</dc:format><dc:type
         rdf:resource="http://purl.org/dc/dcmitype/StillImage" /></cc:Work></rdf:RDF></metadata><defs
   id="defs21">
		
		
		
		
		
	
	
</defs><sodipodi:namedview
   pagecolor="#ffffff"
   bordercolor="#666666"
   borderopacity="1"
   objecttolerance="10"
   gridtolerance="10"
   guidetolerance="10"
   inkscape:pageopacity="0"
   inkscape:pageshadow="2"
   inkscape:window-width="1232"
   inkscape:window-height="756"
   id="namedview19"
   showgrid="false"
   fit-margin-top="0"
   fit-margin-left="0"
   fit-margin-right="0"
   fit-margin-bottom="0"
   inkscape:zoom="26.9"
   inkscape:cx="10"
   inkscape:cy="10.107576"
   inkscape:window-x="48"
   inkscape:window-y="0"
   inkscape:window-maximized="0"
   inkscape:current-layer="svg2" />
<rect
   style="fill:#ababab;fill-opacity:1;stroke:none"
   id="rect3788"
   width="20"
   height="20"
   x="0"
   y="0"
   rx="6.6914496"
   ry="6.6914496" /><g
   id="DO_NOT_EDIT_-_BOUNDING_BOX"
   transform="matrix(0.5648855,0,0,0.5648855,1.5419847,1.3969459)">
	<rect
   id="BOUNDING_BOX"
   width="30"
   height="30"
   x="0"
   y="0"
   style="fill:none" />
</g>
<path
   d="m 12.079359,9.3053429 4.543374,-4.5428092 c 0.228214,-0.2276488 0.228214,-0.5987786 0,-0.8258626 L 15.383939,2.6978772 c -0.228214,-0.2282137 -0.598214,-0.2282137 -0.825298,0 L 10.015267,7.2401215 5.4730229,2.6978772 c -0.2282137,-0.2282137 -0.5982137,-0.2282137 -0.8264275,0 L 3.4078015,3.9366711 c -0.2282137,0.227084 -0.2282137,0.5982138 0,0.8258626 L 7.9511756,9.3053429 3.4078015,13.847587 c -0.2282137,0.228214 -0.2282137,0.598214 0,0.826428 l 1.2387939,1.238794 c 0.2282138,0.228213 0.5982138,0.228213 0.8264275,0 l 4.5422441,-4.543374 4.543374,4.543374 c 0.227084,0.228213 0.597084,0.228213 0.825298,0 l 1.238794,-1.238794 c 0.228214,-0.228214 0.228214,-0.598214 0,-0.826428 L 12.079359,9.3053429 z"
   id="path9"
   inkscape:connector-curvature="0"
   style="opacity:0.3" /><path
   d="m 14.970443,17.214305 c -0.307298,0 -0.595954,-0.120321 -0.812306,-0.338367 l -4.14287,-4.14287 -4.1428701,4.144 c -0.216916,0.217481 -0.5055725,0.337237 -0.8123053,0.337237 -0.3067328,0 -0.5953893,-0.119756 -0.8123054,-0.337237 L 3.0089923,15.638274 c -0.4479542,-0.447954 -0.4479542,-1.177221 0,-1.625175 L 7.1518626,9.8702284 3.0084275,5.7267933 C 2.7909465,5.5104421 2.6711908,5.2212207 2.6717557,4.913923 2.6723206,4.6066253 2.7915114,4.3174039 3.0089923,4.1010528 L 4.2472214,2.8633887 c 0.216916,-0.217481 0.5055725,-0.3366718 0.8128702,-0.3366718 0.3072977,0 0.5953893,0.1197557 0.8123053,0.3366718 l 4.1428701,4.1428702 4.144,-4.1428702 c 0.215786,-0.2169161 0.504443,-0.3366718 0.811176,-0.3366718 0.306733,0 0.595389,0.1197557 0.812305,0.3366718 l 1.238794,1.2387939 c 0.217481,0.2152213 0.337237,0.5038778 0.337802,0.8117404 0,0.3072977 -0.119756,0.5965191 -0.337802,0.8134351 l -4.143435,4.1428703 4.144,4.1428706 c 0.447954,0.447954 0.447954,1.177221 0,1.625175 l -1.238794,1.238794 c -0.217481,0.217481 -0.506137,0.337237 -0.81287,0.337237 z"
   id="path11"
   inkscape:connector-curvature="0"
   style="opacity:0.15" /><path
   d="m 12.079359,9.8702284 4.543374,-4.5428092 c 0.228214,-0.2276488 0.228214,-0.5987786 0,-0.8258626 L 15.383939,3.2627627 c -0.228214,-0.2282137 -0.598214,-0.2282137 -0.825298,0 L 10.015267,7.805007 5.4730229,3.2627627 c -0.2282137,-0.2282137 -0.5982137,-0.2282137 -0.8264275,0 L 3.4078015,4.5015566 c -0.2282137,0.227084 -0.2282137,0.5982138 0,0.8258626 L 7.9511756,9.8702284 3.4078015,14.412473 c -0.2282137,0.228213 -0.2282137,0.598213 0,0.826427 l 1.2387939,1.238794 c 0.2282138,0.228214 0.5982138,0.228214 0.8264275,0 l 4.5422441,-4.543374 4.543374,4.543374 c 0.227084,0.228214 0.597084,0.228214 0.825298,0 L 16.622733,15.2389 c 0.228214,-0.228214 0.228214,-0.598214 0,-0.826427 L 12.079359,9.8702284 z"
   id="path13"
   inkscape:connector-curvature="0"
   style="opacity:0.15" /><path
   d="m 12.079359,9.8702284 4.543374,-4.5428092 c 0.228214,-0.2276488 0.228214,-0.5987786 0,-0.8258626 L 15.383939,3.2627627 c -0.228214,-0.2282137 -0.598214,-0.2282137 -0.825298,0 L 10.015267,7.805007 5.4730229,3.2627627 c -0.2282137,-0.2282137 -0.5982137,-0.2282137 -0.8264275,0 L 3.4078015,4.5015566 c -0.2282137,0.227084 -0.2282137,0.5982138 0,0.8258626 L 7.9511756,9.8702284 3.4078015,14.412473 c -0.2282137,0.228213 -0.2282137,0.598213 0,0.826427 l 1.2387939,1.238794 c 0.2282138,0.228214 0.5982138,0.228214 0.8264275,0 l 4.5422441,-4.543374 4.543374,4.543374 c 0.227084,0.228214 0.597084,0.228214 0.825298,0 L 16.622733,15.2389 c 0.228214,-0.228214 0.228214,-0.598214 0,-0.826427 L 12.079359,9.8702284 z"
   id="path15"
   inkscape:connector-curvature="0"
   style="fill:#ffffff;fill-opacity:1" /><rect
   width="16.946566"
   height="16.946566"
   id="rect17"
   x="1.5419847"
   y="1.396946"
   style="fill:none" />
</svg>